<?xml version="1.0" encoding="UTF-8"?>
<svg id="Calque_2" data-name="Calque 2" xmlns="http://www.w3.org/2000/svg" viewBox="0 0 94.78 40.25">
  <defs>
    <style>
      .cls-1 {
        fill: none;
        stroke: #000;
        stroke-linecap: round;
        stroke-linejoin: round;
      }
    </style>
  </defs>
  <g id="OBJECTS">
    <g>
      <path class="cls-1" d="m17.78,11.23c-.96,3.73.16,7.75,2.16,11.04,2,3.29,4.82,5.99,7.59,8.67,2.76,2.68,5.54,5.44,7.42,8.8,4.06-4.28,8.01-8.73,10.99-13.82,2.98-5.09,4.94-10.92,4.71-16.81-.11-2.65-.85-5.7-2.99-7.45-2.81-2.3-6.31-.75-8.91,1.04-1.24.85-2.26,2.02-2.97,3.35-.35.66-.63,1.37-.81,2.1-.12.47-.5,1.69-.27,2.14-.77-1.5-1.87-2.82-3.18-3.87-2.13-1.71-4.46-2.5-7.27-1.83-3.16.75-5.66,3.56-6.45,6.65Z"/>
      <path class="cls-1" d="m47.18,23.62c.39.77.8,1.55,1.24,2.3,2.99,5.11,6.94,9.55,10.99,13.83,1.88-3.38,4.67-6.12,7.43-8.8,2.76-2.68,5.57-5.39,7.59-8.67,1.99-3.3,3.12-7.3,2.14-11.05-.8-3.1-3.28-5.88-6.45-6.66-2.81-.65-5.14.13-7.28,1.83-1.29,1.06-2.4,2.37-3.17,3.87.23-.44-.15-1.65-.26-2.14-.18-.72-.46-1.42-.83-2.09-.7-1.32-1.73-2.5-2.97-3.35-2.48-1.68-5.73-3.17-8.44-1.37"/>
      <path class="cls-1" d="m58.54,19.68c9.89-.14,19.78-.28,29.67-.41"/>
      <path class="cls-1" d="m82.55,19c2.03-2.21,3.97-4.5,5.82-6.87"/>
      <path class="cls-1" d="m87.7,19.1c2.18-2.33,4.36-4.66,6.54-6.99"/>
      <path class="cls-1" d="m82.05,20.44c1.9,2.59,3.94,5.08,6.11,7.45"/>
      <path class="cls-1" d="m88.23,19.66c1.83,2.46,3.86,4.76,6.06,6.9"/>
      <path class="cls-1" d="m56.98,17.25c.83,1.98,1.56,4,2.16,6.06"/>
      <path class="cls-1" d="m55.34,22.59c1.76-2.42,3.7-4.72,5.8-6.86"/>
      <path class="cls-1" d="m27.54,19.24l4.67,5.76"/>
      <path class="cls-1" d="m27.69,25.18c1.15-2.87,2.61-5.61,4.35-8.16"/>
      <path class="cls-1" d="m29.38,21.48c-8.75-.36-17.53-.07-26.23.86"/>
      <path class="cls-1" d="m7.04,18.52c-2.18,1.06-4.36,2.13-6.54,3.19,2.35,1.46,4.83,2.69,7.41,3.67"/>
    </g>
  </g>
</svg>