<?xml version="1.0" encoding="UTF-8"?>
<svg id="Calque_2" data-name="Calque 2" xmlns="http://www.w3.org/2000/svg" viewBox="0 0 150.12 150.12">
  <defs>
    <style>
      .cls-1 {
        fill: none;
        stroke: #000;
        stroke-linecap: round;
        stroke-miterlimit: 10;
      }
    </style>
  </defs>
  <g id="OBJECTS">
    <g>
      <path class="cls-1" d="m113.19,18.15c-5.95-.44-11.76,4.55-12.23,10.49,3.17.15,6.54-.09,9.19-1.83,2.65-1.75,4.26-5.42,2.77-8.23"/>
      <path class="cls-1" d="m103.63,26.35c3.96-1.44,7.32-4.46,9.18-8.24"/>
      <path class="cls-1" d="m112.61,18.34c-5.12-2.53-7.27-9.69-4.39-14.63,2.26,2.2,4.58,4.49,5.77,7.41,1.18,2.92.93,6.68-1.46,8.74"/>
      <path class="cls-1" d="m108.86,4.21c1.48,5,2.96,10,4.44,15.01"/>
      <path class="cls-1" d="m114.02,18.75c17.23,14.1,27.39,36.43,26.7,58.68"/>
      <path class="cls-1" d="m138.7,57.63c.15-4.52,2.59-8.9,6.35-11.41.04,2.83.07,5.73-.82,8.42-.9,2.69-2.91,5.18-5.67,5.85"/>
      <path class="cls-1" d="m139.26,59.63c2.29-4.1,4-8.51,5.08-13.08"/>
      <path class="cls-1" d="m139.2,65.2c1.13.94.87,3.03-.44,3.67-1.32.64-3.12-.45-3.17-1.91s1.69-2.66,3.05-2.1"/>
      <path class="cls-1" d="m140.23,62.51c-.58,1.67,1.64,3.46,3.16,2.57,1.52-.9,1.06-3.68-.66-4.06-1.72-.38-3.32,1.9-2.4,3.4"/>
      <path class="cls-1" d="m110.74,17.31c-4.8-3.8-12.47-3.25-16.68,1.18,2.64,3.13,7.6,3.99,11.13,1.92"/>
      <path class="cls-1" d="m94.93,18.45c6.07.06,12.13.12,18.2.18"/>
      <path class="cls-1" d="m9.83,93.25c5.62,22.47,24.02,41.27,46.36,47.37"/>
      <path class="cls-1" d="m25.59,121.31c-3.13-4.31-2.22-11.03,1.96-14.35,3.54,4.3,2.57,11.53-1.97,14.75"/>
      <path class="cls-1" d="m25.62,121.72c.17-4.83,1.01-9.63,2.47-14.23"/>
      <path class="cls-1" d="m16.02,109.64c1.23,1.2.78,3.62-.81,4.29-1.59.67-3.64-.7-3.63-2.42,0-1.72,2.07-3.08,3.65-2.4"/>
      <path class="cls-1" d="m15.67,108.43c-.96-.89-.71-2.71.45-3.32s2.8.25,2.97,1.54c.18,1.29-1.18,2.55-2.45,2.28"/>
      <path class="cls-1" d="m9.85,93.28c-1.67-1.05-1.59-3.95.13-4.9,1.72-.96,4.22.5,4.24,2.47s-2.47,3.46-4.2,2.53"/>
      <path class="cls-1" d="m10.43,95.93c.61,1.22-.38,2.91-1.74,2.97-1.36.06-2.5-1.54-2-2.81.5-1.27,2.43-1.65,3.38-.67"/>
      <path class="cls-1" d="m140.86,65.13c1.58,2.51,3.16,5.01,4.74,7.52"/>
      <path class="cls-1" d="m145.59,72.7c1.71-.82,4.04.66,4.03,2.55,0,1.9-2.35,3.35-4.06,2.52-1.71-.83-2-3.57-.5-4.75"/>
      <path class="cls-1" d="m141.18,77.54c-1.61-.54-3.5,1.1-3.19,2.77s2.65,2.53,3.97,1.46c1.31-1.08.93-3.55-.64-4.18"/>
      <path class="cls-1" d="m140.23,78.82c.6.14,1.05.75,1.01,1.37"/>
      <path class="cls-1" d="m147.16,73.85c.56.33.94.94.98,1.59"/>
      <path class="cls-1" d="m137.64,66.23c.45.13.69.72.47,1.13"/>
      <path class="cls-1" d="m142.4,62.19c.36.19.6.58.6.98"/>
      <path class="cls-1" d="m138.29,60.23c.2,1.36-.84,2.79-2.2,3.02s-2.81-.79-3.06-2.15c-.25-1.36.74-2.82,2.09-3.09,1.35-.27,2.83.69,3.13,2.04"/>
      <path class="cls-1" d="m135.91,59.16c.68.32,1.14,1.08,1.1,1.83"/>
      <path class="cls-1" d="m11.07,89.66c.56,0,1.11.32,1.36.82"/>
      <path class="cls-1" d="m8.31,96.24c.41-.18.94-.02,1.19.35"/>
      <path class="cls-1" d="m13.64,110.64c.56-.07,1.15.28,1.35.81"/>
      <path class="cls-1" d="m16.8,106.29c.46-.01.9.34.99.79"/>
      <path class="cls-1" d="m20.4,121.45c-2.47.11-4.86.9-7.21,1.69-.57.19-1.23.47-1.37,1.06-.14.6.34,1.15.79,1.56,1.54,1.39,3.29,2.59,5.27,3.21,1.98.62,4.21.61,6.06-.33,1.53-.77,2.75-2.22,3.12-3.9.07-.33.21-.8.04-1.11-.18-.33-.74-.63-1.05-.83-.77-.5-1.64-.84-2.53-1.06-1.02-.25-2.07-.34-3.12-.29Z"/>
      <path class="cls-1" d="m12.06,124.32c4.87-.39,9.78-.38,14.65.02"/>
      <path class="cls-1" d="m9.97,94.92c-1.54-1.43-3.08-2.85-4.62-4.28"/>
      <path class="cls-1" d="m4.82,90.75c1.43-.86,1.82-3.05.77-4.34-1.05-1.3-3.28-1.36-4.4-.13s-.84,3.45.56,4.36c1.4.91,3.55.25,4.19-1.29"/>
      <path class="cls-1" d="m2.56,87.1c.82-.1,1.68.42,1.98,1.2"/>
      <path class="cls-1" d="m38.4,128.63c-.22-2.38.57-4.85,2.13-6.66,1.88,1.89,2.99,4.51,3.09,7.17.05,1.29-.05,2.91-.89,3.97-.72.91-1.91.8-2.64-.04-1.02-1.16-1.56-2.93-1.7-4.44Z"/>
      <path class="cls-1" d="m40.5,123.91c.75,3.37,1.05,6.83.89,10.28"/>
      <path class="cls-1" d="m51.87,135.45c-.34-2.17.11-4.38.56-6.54,1.54,1.56,3.07,3.2,3.91,5.22.7,1.68.88,3.79,0,5.44-.97,1.82-2.8-.26-3.46-1.32-.53-.85-.87-1.82-1.02-2.81Z"/>
      <path class="cls-1" d="m52.59,128.65c1.79,3.85,2.87,8.02,3.16,12.26"/>
      <path class="cls-1" d="m48.86,140.56c-2.08,1.14-3.59,3.26-3.97,5.6,2.36.37,4.86.44,7.03-.55,1.57-.72,2.92-2.12,3.39-3.81.18-.64.34-1.45-.34-1.82-.78-.42-1.97-.41-2.82-.36-1.14.07-2.28.38-3.28.93Z"/>
      <path class="cls-1" d="m45.1,145.86c3.01-2.8,6.7-4.87,10.66-5.98"/>
      <path class="cls-1" d="m35.59,130.62c-.9-2.04-1.31-4.3-1.19-6.53"/>
      <path class="cls-1" d="m33.97,124.1c1.6.12,3.08-1.5,2.83-3.09-.26-1.58-2.18-2.65-3.66-2.02-1.48.62-2.06,2.74-1.11,4.03.66.9,1.83,1.3,2.95,1.38"/>
      <path class="cls-1" d="m33.8,120.48c.69-.21,1.47.52,1.31,1.23"/>
      <path class="cls-1" d="m37.97,132.81c-1.83-.3-3.73-.24-5.54.18"/>
      <path class="cls-1" d="m32.15,132.96c.47,1.45-.37,3.19-1.79,3.73-1.42.54-3.2-.22-3.81-1.62s.07-3.21,1.44-3.88c1.37-.67,3.21-.08,3.94,1.25"/>
      <path class="cls-1" d="m28.25,133.37c.61-.85,1.97-1.02,2.78-.36"/>
      <path class="cls-1" d="m37.97,133l1.78.59"/>
      <path class="cls-1" d="m121.92,33.38c-2.16.39-4.12,1.5-5.97,2.69,1.52,1.85,3.96,2.9,6.35,2.73,1.8-.12,3.53-.93,4.81-2.19.63-.62,1.27-1.28.45-2-.69-.6-1.6-.98-2.48-1.18-1.03-.23-2.11-.24-3.15-.06Z"/>
      <path class="cls-1" d="m118.47,36.09c3.43-.36,6.85-.72,10.28-1.08"/>
      <path class="cls-1" d="m128.73,35.3c-1.08-2.55-1.22-5.49-.4-8.13"/>
      <path class="cls-1" d="m127.83,27.46c1.23.6,2.91-.04,3.42-1.3.52-1.27-.24-2.9-1.54-3.33-1.3-.43-2.87.43-3.21,1.76-.35,1.38.89,3.01,2.3,2.8"/>
      <path class="cls-1" d="m128.47,35.45c.48-1.4,1.19-2.73,2.09-3.91"/>
      <path class="cls-1" d="m130.36,31.18c-.4-1.27.34-2.78,1.58-3.26,1.24-.47,2.8.16,3.35,1.37.55,1.21.01,2.8-1.16,3.43-1.17.63-2.8.19-3.49-.94"/>
      <path class="cls-1" d="m128.35,24.18c.42-.16.95.04,1.16.44"/>
      <path class="cls-1" d="m132.72,29.54c.45.02.87.37.97.81"/>
      <path class="cls-1" d="m137.87,54.46c-1.17-1.59-2.87-2.79-4.76-3.36"/>
      <path class="cls-1" d="m132.74,51.51c.93-1.35.39-3.46-1.08-4.19-1.46-.73-3.48.1-4,1.65-.52,1.55.57,3.43,2.17,3.75,1.6.31,3.33-1.01,3.43-2.65"/>
      <path class="cls-1" d="m129.55,48.54c.73-.11,1.51.22,1.95.81"/>
    </g>
    <g>
      <path class="cls-1" d="m131.97,113.19c.44-5.95-4.55-11.76-10.49-12.23-.15,3.17.09,6.54,1.83,9.19,1.75,2.65,5.42,4.26,8.23,2.77"/>
      <path class="cls-1" d="m123.78,103.63c1.44,3.96,4.46,7.32,8.24,9.18"/>
      <path class="cls-1" d="m131.78,112.61c2.53-5.12,9.69-7.27,14.63-4.39-2.2,2.26-4.49,4.58-7.41,5.77-2.92,1.18-6.68.93-8.74-1.46"/>
      <path class="cls-1" d="m145.92,108.86c-5,1.48-10,2.96-15.01,4.44"/>
      <path class="cls-1" d="m131.38,114.02c-14.1,17.23-36.43,27.39-58.68,26.7"/>
      <path class="cls-1" d="m92.49,138.7c4.52.15,8.9,2.59,11.41,6.35-2.83.04-5.73.07-8.42-.82s-5.18-2.91-5.85-5.67"/>
      <path class="cls-1" d="m90.5,139.26c4.1,2.29,8.51,4,13.08,5.08"/>
      <path class="cls-1" d="m84.92,139.2c-.94,1.13-3.03.88-3.67-.44-.64-1.32.45-3.12,1.91-3.17,1.46-.04,2.66,1.69,2.1,3.05"/>
      <path class="cls-1" d="m87.61,140.23c-1.67-.58-3.46,1.64-2.57,3.16.9,1.52,3.68,1.06,4.06-.66.38-1.72-1.9-3.32-3.4-2.4"/>
      <path class="cls-1" d="m132.82,110.74c3.8-4.8,3.25-12.47-1.18-16.68-3.13,2.64-3.99,7.6-1.92,11.13"/>
      <path class="cls-1" d="m131.67,94.93c-.06,6.07-.12,12.13-.18,18.2"/>
      <path class="cls-1" d="m56.87,9.83C34.4,15.45,15.6,33.85,9.5,56.19"/>
      <path class="cls-1" d="m28.82,25.59c4.31-3.13,11.03-2.22,14.35,1.96-4.3,3.54-11.53,2.57-14.75-1.97"/>
      <path class="cls-1" d="m28.4,25.62c4.83.17,9.63,1.01,14.23,2.47"/>
      <path class="cls-1" d="m40.48,16.02c-1.2,1.24-3.62.78-4.29-.81-.67-1.59.7-3.64,2.42-3.63,1.72,0,3.08,2.07,2.4,3.65"/>
      <path class="cls-1" d="m41.7,15.67c.89-.96,2.71-.71,3.32.45.6,1.16-.25,2.8-1.54,2.97-1.29.18-2.55-1.18-2.28-2.45"/>
      <path class="cls-1" d="m56.84,9.85c1.05-1.67,3.95-1.59,4.9.13.96,1.72-.5,4.22-2.47,4.24s-3.46-2.47-2.53-4.2"/>
      <path class="cls-1" d="m54.19,10.43c-1.22.61-2.91-.38-2.97-1.74-.06-1.36,1.54-2.5,2.81-2,1.27.5,1.65,2.43.67,3.38"/>
      <path class="cls-1" d="m84.99,140.86c-2.51,1.58-5.01,3.16-7.52,4.74"/>
      <path class="cls-1" d="m77.42,145.59c.82,1.71-.66,4.04-2.55,4.03s-3.35-2.35-2.52-4.06c.83-1.71,3.57-2,4.75-.5"/>
      <path class="cls-1" d="m72.59,141.18c.54-1.61-1.1-3.5-2.77-3.19-1.67.31-2.53,2.65-1.46,3.97s3.55.93,4.18-.64"/>
      <path class="cls-1" d="m71.3,140.23c-.14.6-.75,1.05-1.37,1.01"/>
      <path class="cls-1" d="m76.27,147.16c-.33.56-.94.94-1.59.98"/>
      <path class="cls-1" d="m83.9,137.64c-.13.45-.72.69-1.13.47"/>
      <path class="cls-1" d="m87.93,142.4c-.19.36-.58.6-.98.6"/>
      <path class="cls-1" d="m89.89,138.29c-1.36.2-2.79-.84-3.02-2.2-.23-1.36.79-2.81,2.15-3.06,1.36-.25,2.82.74,3.09,2.09.27,1.35-.69,2.83-2.04,3.13"/>
      <path class="cls-1" d="m90.96,135.91c-.32.68-1.08,1.14-1.83,1.1"/>
      <path class="cls-1" d="m60.46,11.07c0,.56-.32,1.11-.82,1.36"/>
      <path class="cls-1" d="m53.89,8.31c.18.41.02.94-.35,1.19"/>
      <path class="cls-1" d="m39.49,13.64c.07.56-.28,1.15-.81,1.35"/>
      <path class="cls-1" d="m43.83,16.8c.01.46-.34.9-.79.99"/>
      <path class="cls-1" d="m28.67,20.4c-.11-2.47-.9-4.86-1.69-7.21-.19-.57-.47-1.23-1.06-1.37-.6-.14-1.15.34-1.56.79-1.39,1.54-2.59,3.29-3.21,5.27-.62,1.98-.61,4.21.33,6.06.77,1.53,2.22,2.75,3.9,3.12.33.07.8.21,1.11.04.33-.18.63-.74.83-1.05.5-.77.84-1.64,1.06-2.53.25-1.02.34-2.07.29-3.12Z"/>
      <path class="cls-1" d="m25.81,12.06c.39,4.87.38,9.78-.02,14.65"/>
      <path class="cls-1" d="m55.2,9.97c1.43-1.54,2.85-3.08,4.28-4.62"/>
      <path class="cls-1" d="m59.37,4.82c.86,1.43,3.05,1.82,4.34.77,1.29-1.05,1.36-3.28.13-4.4s-3.45-.84-4.36.56c-.91,1.4-.25,3.55,1.29,4.19"/>
      <path class="cls-1" d="m63.02,2.56c.1.82-.42,1.68-1.2,1.98"/>
      <path class="cls-1" d="m21.49,38.4c2.38-.22,4.85.57,6.66,2.13-1.89,1.88-4.51,2.99-7.17,3.09-1.29.05-2.91-.05-3.97-.89-.91-.72-.8-1.91.04-2.64,1.16-1.02,2.93-1.56,4.44-1.7Z"/>
      <path class="cls-1" d="m26.22,40.5c-3.37.75-6.83,1.05-10.28.89"/>
      <path class="cls-1" d="m14.67,51.87c2.17-.34,4.38.11,6.54.56-1.56,1.54-3.2,3.07-5.22,3.91-1.68.7-3.79.88-5.44,0-1.82-.97.26-2.8,1.32-3.46.85-.53,1.82-.87,2.81-1.02Z"/>
      <path class="cls-1" d="m21.47,52.59c-3.85,1.79-8.02,2.87-12.26,3.16"/>
      <path class="cls-1" d="m9.57,48.86c-1.14-2.08-3.26-3.59-5.6-3.97-.37,2.36-.44,4.86.55,7.03.72,1.57,2.12,2.92,3.81,3.39.64.18,1.45.34,1.82-.34.42-.78.41-1.97.36-2.82-.07-1.14-.38-2.28-.93-3.28Z"/>
      <path class="cls-1" d="m4.26,45.1c2.8,3.01,4.87,6.7,5.98,10.66"/>
      <path class="cls-1" d="m19.5,35.59c2.04-.9,4.3-1.31,6.53-1.19"/>
      <path class="cls-1" d="m26.02,33.97c-.12,1.6,1.5,3.08,3.09,2.83,1.58-.26,2.65-2.18,2.02-3.66-.62-1.48-2.74-2.06-4.03-1.11-.9.66-1.3,1.83-1.38,2.95"/>
      <path class="cls-1" d="m29.64,33.8c.21.69-.52,1.47-1.22,1.31"/>
      <path class="cls-1" d="m17.31,37.97c.3-1.83.24-3.73-.18-5.54"/>
      <path class="cls-1" d="m17.16,32.15c-1.45.47-3.19-.37-3.73-1.79-.54-1.42.22-3.2,1.62-3.81,1.4-.6,3.21.07,3.88,1.44.67,1.37.08,3.21-1.25,3.94"/>
      <path class="cls-1" d="m16.75,28.25c.85.61,1.02,1.97.36,2.78"/>
      <path class="cls-1" d="m17.12,37.97c-.2.59-.4,1.19-.59,1.78"/>
      <path class="cls-1" d="m116.75,121.92c-.38-2.16-1.5-4.12-2.69-5.97-1.85,1.52-2.9,3.96-2.73,6.35.12,1.8.93,3.53,2.19,4.81.62.63,1.28,1.27,2,.45.6-.69.98-1.6,1.18-2.48.23-1.03.24-2.11.06-3.15Z"/>
      <path class="cls-1" d="m114.04,118.47l1.08,10.28"/>
      <path class="cls-1" d="m114.83,128.73c2.55-1.08,5.49-1.22,8.13-.4"/>
      <path class="cls-1" d="m122.66,127.83c-.6,1.23.04,2.91,1.3,3.42,1.27.52,2.9-.24,3.33-1.54.43-1.3-.43-2.87-1.76-3.21-1.38-.35-3.01.89-2.8,2.3"/>
      <path class="cls-1" d="m114.67,128.47c1.4.48,2.73,1.19,3.91,2.09"/>
      <path class="cls-1" d="m118.94,130.36c1.27-.4,2.78.34,3.25,1.58.47,1.24-.16,2.8-1.37,3.35-1.21.55-2.8.01-3.43-1.16-.63-1.17-.19-2.8.94-3.49"/>
      <path class="cls-1" d="m125.94,128.35c.16.42-.04.95-.44,1.16"/>
      <path class="cls-1" d="m120.59,132.72c-.02.45-.37.87-.81.97"/>
      <path class="cls-1" d="m95.66,137.87c1.59-1.17,2.79-2.87,3.36-4.76"/>
      <path class="cls-1" d="m98.61,132.74c1.35.93,3.46.39,4.19-1.08.73-1.46-.1-3.48-1.65-4-1.55-.52-3.43.57-3.75,2.17-.32,1.6,1.01,3.33,2.65,3.43"/>
      <path class="cls-1" d="m101.59,129.55c.11.73-.22,1.51-.81,1.95"/>
    </g>
  </g>
</svg>