<?xml version="1.0" encoding="UTF-8"?>
<svg id="Calque_2" data-name="Calque 2" xmlns="http://www.w3.org/2000/svg" viewBox="0 0 71.94 101.67">
  <defs>
    <style>
      .cls-1 {
        stroke-miterlimit: 10;
      }

      .cls-1, .cls-2 {
        fill: none;
        stroke: #000;
        stroke-linecap: round;
      }

      .cls-2 {
        stroke-linejoin: round;
      }
    </style>
  </defs>
  <g id="OBJECTS">
    <g>
      <path class="cls-1" d="m17.1,15.32c5.48,3.39,11.37,4.55,17.71,3.34"/>
      <path class="cls-1" d="m17.1,15.32c-1.66,8.12-3.33,16.23-4.99,24.35-.67,3.26-1.34,6.6-.9,9.89.44,3.3,2.22,6.61,5.25,7.99"/>
      <path class="cls-1" d="m19.74,58.13c2.45.38,4.91-1.03,6.43-2.99,1.52-1.96,2.28-4.39,2.93-6.79,2.66-9.73,4.19-19.72,5.7-29.69"/>
      <path class="cls-1" d="m17.1,15.32c6.14.02,11.97.7,17.63,3.11"/>
      <path class="cls-1" d="m16.86,57.87c-2.39,12.6-4.78,25.19-7.17,37.79"/>
      <path class="cls-1" d="m19.49,58.26c-2.08,12.69-4.55,25.32-7.41,37.86"/>
      <path class="cls-1" d="m9.61,95.77c-3.06.18-6.1.75-9.03,1.67"/>
      <path class="cls-1" d="m12.36,96.07c2.74,1.3,5.38,2.83,7.86,4.57"/>
      <path class="cls-1" d="m.5,97.84c6.53,1.6,13.19,2.71,19.88,3.33"/>
      <path class="cls-2" d="m16.94,24.99c4.19,2.25,9.15,3.05,13.83,2.22"/>
      <path class="cls-2" d="m17.39,25.04c-1.98,7.02-3.14,14.27-3.45,21.55-.07,1.56-.09,3.16.37,4.65.7,2.31,2.68,3.9,5.13,3.85,0,0,2.7,2.15,6.94-4.75,2.72-4.43,3.53-16.37,3.53-16.37.28-2.05.43-4.13.47-6.2"/>
      <path class="cls-2" d="m17.71,24.87c4.3.04,8.59.76,12.66,2.12"/>
      <path class="cls-1" d="m54.84,15.32c-5.48,3.39-11.37,4.55-17.71,3.34"/>
      <path class="cls-1" d="m54.84,15.32l4.99,24.35c.67,3.26,1.34,6.6.9,9.89-.44,3.3-2.22,6.61-5.25,7.99"/>
      <path class="cls-1" d="m52.2,58.13c-2.45.38-4.91-1.03-6.43-2.99-1.52-1.96-2.28-4.39-2.93-6.79-2.66-9.73-4.19-19.72-5.7-29.69"/>
      <path class="cls-1" d="m54.84,15.32c-6.14.02-11.97.7-17.63,3.11"/>
      <path class="cls-1" d="m55.08,57.87c2.39,12.6,4.78,25.19,7.17,37.79"/>
      <path class="cls-1" d="m52.45,58.26c2.08,12.69,4.55,25.32,7.41,37.86"/>
      <path class="cls-1" d="m62.34,95.77c3.06.18,6.1.75,9.03,1.67"/>
      <path class="cls-1" d="m59.58,96.07c-2.74,1.3-5.38,2.83-7.86,4.57"/>
      <path class="cls-1" d="m71.44,97.84c-6.53,1.6-13.19,2.71-19.88,3.33"/>
      <path class="cls-2" d="m55,24.99c-4.19,2.25-9.15,3.05-13.83,2.22"/>
      <path class="cls-2" d="m54.55,25.04c1.98,7.02,3.14,14.27,3.45,21.55.07,1.56.09,3.16-.37,4.65-.7,2.31-2.68,3.9-5.13,3.85,0,0-2.7,2.15-6.94-4.75-2.72-4.43-3.53-16.37-3.53-16.37-.28-2.05-.43-4.13-.47-6.2"/>
      <g>
        <path class="cls-2" d="m24.43,2.39c1.23,1.99,2.23,4.11,2.97,6.33"/>
        <path class="cls-2" d="m15.19,8.09c1.68,1,3.36,2.01,5.04,3.01"/>
        <path class="cls-2" d="m35.95.5c.02,2.57.03,5.14.05,7.71"/>
        <path class="cls-2" d="m46.2,3.27c-1.23,1.99-2.23,4.11-2.97,6.33"/>
        <path class="cls-2" d="m54.97,8.09c-1.68,1-3.36,2.01-5.04,3.01"/>
      </g>
      <path class="cls-2" d="m54.23,24.87c-4.3.04-8.59.76-12.66,2.12"/>
    </g>
  </g>
</svg>