<?xml version="1.0" encoding="UTF-8"?>
<svg id="Calque_2" data-name="Calque 2" xmlns="http://www.w3.org/2000/svg" viewBox="0 0 80.27 34.3">
  <defs>
    <style>
      .cls-1 {
        fill: none;
        stroke: #000;
        stroke-linecap: round;
        stroke-miterlimit: 10;
      }
    </style>
  </defs>
  <g id="OBJECTS">
    <g>
      <g>
        <path class="cls-1" d="m52.35,1.19c-.53-.43-1.19-.69-1.92-.69H3.52c-.73,0-1.4.26-1.92.69-.67.56-1.1,1.4-1.1,2.33v27.26c0,.87.38,1.66.97,2.22.54.49,1.25.8,2.05.8h46.91c.79,0,1.51-.31,2.05-.8.6-.56.97-1.35.97-2.22V3.52c0-.93-.43-1.77-1.1-2.33Zm-25.37,19.8h0c-3.44-1.87-4.36-4.04-4.6-5.18-.09-.41-.09-.68-.09-.76v-.02c0-.27.03-.53.1-.77.3-1.07,1.19-1.91,2.43-1.91.51,0,.94.16,1.27.4h0c.06.05.11.09.16.13.35.32.59.75.71,1.15.24-.82.94-1.69,2.15-1.69s2.14.85,2.44,1.91c.07.24.1.5.1.77,0,0,0,.02,0,.02v.07c0,.13-.02.37-.08.69-.24,1.14-1.15,3.31-4.6,5.18Z"/>
        <line class="cls-1" x1="52.48" y1="33" x2="31.58" y2="15.82"/>
        <line class="cls-1" x1="22.37" y1="15.82" x2="1.47" y2="33"/>
        <path class="cls-1" d="m26.1,12.75h0"/>
        <line class="cls-1" x1="22.39" y1="14.26" x2="1.6" y2="1.19"/>
        <line class="cls-1" x1="52.35" y1="1.19" x2="31.57" y2="14.26"/>
        <line class="cls-1" x1="50.43" y1=".5" x2="3.52" y2=".5"/>
      </g>
      <path class="cls-1" d="m60,14.92c4.75-.25,9.5-.5,14.24-.75"/>
      <path class="cls-1" d="m58.41,19.53h9.49"/>
      <path class="cls-1" d="m63.16,25.07h16.62"/>
    </g>
  </g>
</svg>