<?xml version="1.0" encoding="UTF-8"?>
<svg id="Calque_2" data-name="Calque 2" xmlns="http://www.w3.org/2000/svg" viewBox="0 0 153.91 31.51">
  <defs>
    <style>
      .cls-1 {
        fill: none;
        stroke: #000;
        stroke-linecap: round;
        stroke-miterlimit: 10;
        stroke-width: 1.07px;
      }
    </style>
  </defs>
  <g id="OBJECTS">
    <g>
      <g>
        <path class="cls-1" d="m86.03,21.89c6.47-4.58,15.6-5.08,22.53-1.22,1.6.89,3.18,2.13,3.65,3.9.46,1.77-.82,4.02-2.64,3.88-1.68-.13-2.67-2.22-2.15-3.83.52-1.6,2.06-2.67,3.64-3.25,3.5-1.28,7.39-.69,11.01.15,3.63.84,7.29,1.94,11,1.64,3.71-.29,7.59-2.37,8.69-5.93"/>
        <path class="cls-1" d="m142.51,17.6c-3.16-.65-5.01-4.79-3.38-7.58,4.38,1.68,8.53,3.96,12.3,6.76-2.14,2.96-7.27,2.96-9.4,0"/>
        <path class="cls-1" d="m139.02,9.57c-1.25.06-1.83-1.88-.91-2.74.91-.85,2.5-.54,3.34.39.84.93,1.07,2.25,1.08,3.5.18-1.33,1.84-2.21,3.04-1.63,1.2.58,1.53,2.43.6,3.4,1.05-.95,2.63-1.63,3.87-.94,1.24.69.92,3.15-.49,3.01.82-.17,1.69-.3,2.47,0,.78.29,1.41,1.14,1.18,1.94-.24.8-1.56,1.06-1.9.3"/>
        <path class="cls-1" d="m141.14,6.61c1.5-1.5,4.58-.46,4.86,1.65.89-1.03,2.64-1.13,3.65-.22,1.01.91,1.08,2.67.15,3.66.97-.72,2.51-.46,3.2.53s.38,2.53-.63,3.18"/>
        <path class="cls-1" d="m144.93,3.49h.49"/>
        <path class="cls-1" d="m148.38,1.03v-.49"/>
        <path class="cls-1" d="m148.87,3.99c.33.16.66.33.99.49"/>
        <path class="cls-1" d="m151.83,1.52h.49"/>
        <path class="cls-1" d="m122.3,21.68c1.95,1.66,3.91,3.33,5.86,4.99"/>
        <path class="cls-1" d="m123.62,23.27c-.03,2.01-.02,4.16,1.07,5.85,1.09,1.69,3.69,2.56,5.15,1.17,1.24-1.18.98-3.34-.1-4.67-1.08-1.33-2.73-2.03-4.31-2.68"/>
        <path class="cls-1" d="m117.16,20.46c-.49-2.23.75-4.82,2.93-5.51,2.18-.68,4.87,1.06,4.82,3.35-.05,2.28-3.27,3.85-4.92,2.28"/>
        <path class="cls-1" d="m117.88,20.85c1.64-.99,3.28-1.98,4.93-2.96"/>
      </g>
      <g>
        <path class="cls-1" d="m67.88,21.89c-6.47-4.58-15.6-5.08-22.53-1.22-1.6.89-3.18,2.13-3.65,3.9-.46,1.77.82,4.02,2.64,3.88,1.68-.13,2.67-2.22,2.15-3.83-.52-1.6-2.06-2.67-3.64-3.25-3.5-1.28-7.39-.69-11.01.15-3.63.84-7.29,1.94-11,1.64s-7.59-2.37-8.69-5.93"/>
        <path class="cls-1" d="m11.4,17.6c3.16-.65,5.01-4.79,3.38-7.58-4.38,1.68-8.53,3.96-12.3,6.76,2.14,2.96,7.27,2.96,9.4,0"/>
        <path class="cls-1" d="m14.89,9.57c1.25.06,1.83-1.88.91-2.74s-2.5-.54-3.34.39-1.07,2.25-1.08,3.5c-.18-1.33-1.84-2.21-3.04-1.63-1.2.58-1.53,2.43-.6,3.4-1.05-.95-2.63-1.63-3.87-.94-1.24.69-.92,3.15.49,3.01-.82-.17-1.69-.3-2.47,0-.78.29-1.41,1.14-1.18,1.94.24.8,1.56,1.06,1.9.3"/>
        <path class="cls-1" d="m12.76,6.61c-1.5-1.5-4.58-.46-4.86,1.65-.89-1.03-2.64-1.13-3.65-.22-1.01.91-1.08,2.67-.15,3.66-.97-.72-2.51-.46-3.2.53s-.38,2.53.63,3.18"/>
        <path class="cls-1" d="m8.98,3.49h-.49"/>
        <path class="cls-1" d="m5.53,1.03v-.49"/>
        <path class="cls-1" d="m5.03,3.99c-.33.16-.66.33-.99.49"/>
        <path class="cls-1" d="m2.08,1.52h-.49"/>
        <path class="cls-1" d="m31.61,21.68c-1.95,1.66-3.91,3.33-5.86,4.99"/>
        <path class="cls-1" d="m30.29,23.27c.03,2.01.02,4.16-1.07,5.85-1.09,1.69-3.69,2.56-5.15,1.17-1.24-1.18-.98-3.34.1-4.67,1.08-1.33,2.73-2.03,4.31-2.68"/>
        <path class="cls-1" d="m36.75,20.46c.49-2.23-.75-4.82-2.93-5.51-2.18-.68-4.87,1.06-4.82,3.35s3.27,3.85,4.92,2.28"/>
        <path class="cls-1" d="m36.03,20.85l-4.93-2.96"/>
      </g>
      <path class="cls-1" d="m77.52,24.66c-1.25-.36-2.65.91-2.42,2.19.23,1.28,2,1.97,3.04,1.19,1.04-.78.87-2.67-.29-3.25"/>
    </g>
  </g>
</svg>