<?xml version="1.0" encoding="UTF-8"?>
<svg id="Calque_2" data-name="Calque 2" xmlns="http://www.w3.org/2000/svg" viewBox="0 0 77.77 64.51">
  <defs>
    <style>
      .cls-1 {
        fill: none;
        stroke: #000;
        stroke-linecap: round;
        stroke-miterlimit: 10;
      }
    </style>
  </defs>
  <g id="OBJECTS">
    <g>
      <g>
        <path class="cls-1" d="m38.9,59.34c-2.14,1.65-4.59,2.92-7.31,3.72-12.6,3.74-26.03-4.02-29.99-17.35-3.9-13.19,2.92-26.86,15.29-30.76.12-.06.25-.1.39-.14,7.68-2.27,15.64-.29,21.6,4.63,1.33,1.1,2.59,2.35,3.69,3.74,2.06,2.57,3.69,5.59,4.68,8.98,2.51,8.51.57,17.23-4.43,23.39"/>
        <path class="cls-1" d="m34.98,55.54c-1.49,1.02-3.14,1.82-4.94,2.35-9.9,2.94-20.43-3.18-23.54-13.62-3.1-10.47,2.41-21.33,12.31-24.27,5.78-1.73,11.78-.35,16.41,3.18,1.35,1.04,2.61,2.27,3.69,3.69,1.51,1.96,2.71,4.23,3.45,6.76,1.98,6.66.45,13.49-3.45,18.33"/>
        <path class="cls-1" d="m16.06,5.66c-1.06-1.26-.72-3.36.56-4.39,1.28-1.03,3.23-1,4.62-.11,1.38.89,2.21,2.5,2.37,4.13.17,1.64-.27,3.29-.99,4.77-.72,1.48-1.71,2.81-2.71,4.11"/>
        <path class="cls-1" d="m15.65,5.78c.2-1.63-1.23-3.21-2.86-3.37-1.64-.16-3.25.93-3.93,2.43-.68,1.5-.49,3.3.26,4.76.75,1.46,2.02,2.61,3.43,3.46,1.41.85,2.96,1.42,4.51,1.96"/>
      </g>
      <g>
        <path class="cls-1" d="m38.9,26.86c-1.08-1.41-2.33-2.65-3.69-3.69-2.08,2.59-3.7,5.65-4.7,9.06-2.49,8.49-.55,17.17,4.47,23.31,1.14,1.43,2.45,2.71,3.92,3.8,2.16,1.67,4.63,2.94,7.35,3.74,12.6,3.7,26.01-4.1,29.93-17.43s-3.14-27.15-15.74-30.85c-.14-.04-.25-.08-.39-.1h-.02c-7.55-2.08-15.31-.06-21.15,4.74,1.33,1.1,2.59,2.35,3.69,3.74"/>
        <path class="cls-1" d="m38.9,26.86c-1.53,1.96-2.74,4.27-3.49,6.82-1.96,6.65-.43,13.45,3.49,18.27,1.12,1.39,2.43,2.61,3.92,3.61,1.49,1.02,3.16,1.82,4.96,2.35,9.9,2.9,20.43-3.21,23.5-13.68,3.08-10.47-2.47-21.33-12.37-24.23-5.76-1.71-11.74-.33-16.35,3.2"/>
        <path class="cls-1" d="m64.4,6.46c-.21-1.63,1.22-3.21,2.85-3.38,1.64-.17,3.25.92,3.93,2.41.68,1.5.5,3.3-.25,4.76-.75,1.46-2.01,2.61-3.42,3.46-1.41.85-2.96,1.43-4.51,1.97"/>
        <path class="cls-1" d="m63.98,6.34c1.06-1.26.71-3.36-.57-4.39-1.28-1.03-3.23-.99-4.62-.1-1.38.89-2.2,2.5-2.36,4.14-.16,1.64.28,3.29,1,4.76.72,1.48,1.72,2.8,2.72,4.1"/>
      </g>
    </g>
  </g>
</svg>