<?xml version="1.0" encoding="UTF-8"?>
<svg id="Calque_2" data-name="Calque 2" xmlns="http://www.w3.org/2000/svg" viewBox="0 0 82.31 90.15">
  <defs>
    <style>
      .cls-1 {
        fill: none;
        stroke: #000;
        stroke-linecap: round;
        stroke-miterlimit: 10;
      }
    </style>
  </defs>
  <g id="OBJECTS">
    <g>
      <g>
        <path class="cls-1" d="m49.09,53.04c4.77,2.97,7.57,8.84,6.87,14.42-.7,5.58-4.85,10.58-10.21,12.28"/>
        <path class="cls-1" d="m43.26,77.59c2.46,1.29,2.56,5.11.75,7.22-1.81,2.11-4.78,2.8-7.56,2.91-2.78.1-5.59-.26-8.32.26-2.37.45-4.61,1.55-7.02,1.66-3.16.15-6.34-1.6-7.91-4.35-1.57-2.75-1.46-6.38.27-9.03"/>
        <path class="cls-1" d="m11.81,82.51c-2.6-1.4-5.24-2.83-7.37-4.87-2.14-2.04-3.74-4.81-3.75-7.77,0-2.2.87-4.32.97-6.51.09-2.03-.48-4.02-.86-6.02-.38-2-.54-4.14.3-5.99.85-1.85,3-3.22,4.93-2.58"/>
        <path class="cls-1" d="m54.94,58.83c2.35-.97,3.03-4.1,2.4-6.56-.63-2.46-2.19-4.58-3.11-6.95-1.02-2.62-1.26-5.53-2.62-7.99-1.62-2.91-4.67-4.81-7.87-5.71-3.2-.9-6.59-.9-9.91-.78"/>
        <path class="cls-1" d="m36.61,35.63c-1.07-4.98-6.75-7.87-11.84-7.5-5.09.37-9.64,3.16-13.86,6.02-2.18,1.47-4.38,3.03-5.89,5.18-1.52,2.15-2.72,7.31-1.7,9.73"/>
        <path class="cls-1" d="m24.29,36.78c-2.5-.16-4.98.53-7.34,1.38-2.85,1.03-5.71,2.37-7.67,4.68-1.96,2.31-2.77,5.82-1.24,8.43.8-1.07,2.32-1.26,3.65-1.1,1.32.16,2.64.58,3.96.39,2.12-.3,3.7-2.09,4.81-3.92,1.11-1.83,2-3.86,3.61-5.27.78-.68,1.68-1.03,2.67-1.27.66-.16,1.78-.34,2.01-1.14.45-1.55-3.46-2.11-4.47-2.18Z"/>
        <path class="cls-1" d="m29.04,38.83c1.33,1.38,2.69,2.79,4.42,3.62,1.84.88,3.95,1.04,5.82,1.85,1.99.87,3.59,2.43,5.14,3.96,1.77,1.75,3.57,3.54,4.67,5.77"/>
        <path class="cls-1" d="m48.67,54c2.06-4.26.87-9.68-2.31-13.19-3.18-3.51-8.02-5.23-12.76-5.3-.97-.01-1.98.05-2.85.47-.87.43-1.59,1.31-1.56,2.28"/>
        <path class="cls-1" d="m46.48,72.61c-1.24,3.15-3.64,5.82-6.62,7.41-1.98,1.05-4.27,1.64-6.47,1.23-1.19-.22-2.34-.76-3.25-1.55-.49-.43-1.47-1.32-1.51-2.04-.03-.52.75-.76,1.16-.92,1.18-.44,2.46-.5,3.69-.73,4.07-.76,7.68-3.66,9.3-7.46.6-1.4.97-2.94,1.88-4.18.44-.6.87-.87,1.53-1.13.76-.31,1.32-1.01,1.84-1.61.37-.42,1.83-7.42.63-7.62-1.54-.26-.7,5.94-.73,6.95-.06,1.87-.06,3.75-.2,5.62-.16,2.06-.49,4.12-1.25,6.05Z"/>
        <path class="cls-1" d="m28.51,76.88c-.34,1.52-2.62,1.69-3.84.71-1.21-.98-1.75-2.55-2.61-3.84-1.98-2.96-5.65-4.39-7.85-7.2-1.71-2.18-2.38-5.03-2.39-7.8-.01-2.77.59-5.5,1.18-8.21"/>
        <path class="cls-1" d="m8.2,51.37c-1.33.19-2.34,1.4-2.72,2.69-.37,1.29-.24,2.67-.11,4.02.29,2.81.57,5.63.86,8.44.2,1.97.44,4.05,1.62,5.64,1.17,1.58,3.08,2.4,4.89,3.16,3.47,1.45,7.23,2.93,10.88,2.05"/>
        <path class="cls-1" d="m31.61,70.05c2.31-.53,4.62-1.07,6.94-1.6.81-.19,1.66-.4,2.26-.97.52-.5.78-1.21,1.01-1.89.74-2.11,1.47-4.23,2.21-6.34.61-1.75,1.22-3.64.69-5.42-.74-2.47-3.41-3.8-5.92-4.39-.96-.22-2.04-.36-2.86.18-.82.54-.97,2.03-.06,2.4"/>
        <path class="cls-1" d="m30.99,57.32c-.72-1.15-.98-2.58-.71-3.9.1-.48.33-1.02.81-1.12.63-.13,1.09.58,1.34,1.17.37.85.74,1.75.67,2.68-.08.93-.77,1.87-1.7,1.89-.88.02-1.56-.74-2.1-1.43-1.05-1.34-2.1-2.67-3.16-4.01"/>
        <path class="cls-1" d="m28,54.53c.12,1.1.25,2.21.37,3.31.12,1.06.24,2.13.63,3.12.39.99,1.09,1.9,2.07,2.32,1.26.54,2.75.15,3.91-.59,1.74-1.12,2.93-3.04,3.17-5.1.23-2.05-.5-4.2-1.94-5.68"/>
        <path class="cls-1" d="m26.2,52.51c-1.05-.75-2.61-.35-3.46.61-.85.96-1.09,2.33-1.02,3.61.14,2.44,1.37,4.84,3.41,6.19,2.04,1.34,4.87,1.49,6.92.16"/>
        <path class="cls-1" d="m31.76,63.61c1.75-.2,3.56.27,4.99,1.29-1.34,1.74-2.83,3.58-4.94,4.16-1.12.31-2.31.22-3.47.33-1.41.14-2.79.57-4.2.58-1.41.02-2.97-.5-3.64-1.75,1.12-.64,1.19-2.24,1.99-3.26.59-.75,1.57-1.13,2.53-1.2.96-.07,1.91.12,2.85.31"/>
        <path class="cls-1" d="m20.68,68.51c-2.11-.63-3.55-2.66-4.09-4.79-.54-2.13-.34-4.37-.13-6.56.05-.56.12-1.15.48-1.59.27-.32.66-.51,1.03-.69,2.27-1.08,4.54-2.16,6.81-3.24"/>
        <path class="cls-1" d="m22.71,64.79c-2.25-2.43-2.57-6.44-.71-9.19"/>
        <path class="cls-1" d="m36.39,48.96c-1.17-.83-2.36-1.68-3.71-2.13-1.36-.45-2.94-.46-4.14.31-1.26.81-1.96,2.36-3.32,2.99-1.44.66-3.14.08-4.7.38-2.2.41-3.81,2.82-3.35,5.01"/>
        <path class="cls-1" d="m37.24,49.09c-1.69-2.42-4-4.41-6.66-5.7-.92-.45-1.99-.83-2.96-.49-1.65.57-2.03,2.72-3.17,4.05-.97,1.13-2.48,1.61-3.8,2.3-1.32.69-2.63,1.88-2.57,3.37"/>
      </g>
      <g>
        <path class="cls-1" d="m29.62,28.27c2.82-9.93-.58-20.52-8.15-27.54-3.52,4.28-6.77,8.97-8.11,14.34-1.33,5.38-.41,11.59,3.52,15.49"/>
        <path class="cls-1" d="m21.91,3.97c1.83,8.58,2.9,15.42,1.84,24.12"/>
        <path class="cls-1" d="m27.25,14.6c-1.17,1.87-1.92,3.07-3.09,4.94"/>
        <path class="cls-1" d="m23.28,26.15c-1.61-1.38-3.22-2.75-4.83-4.13"/>
        <path class="cls-1" d="m22.89,10.63c-1.25-.65-2.41-1.48-3.43-2.45"/>
      </g>
      <g>
        <path class="cls-1" d="m56.17,48.42c4.36-2.59,10.1-1.75,14.49.78,4.4,2.53,7.74,6.51,10.99,10.41-6.23,6.92-16.36,10.06-25.41,7.89"/>
        <path class="cls-1" d="m78.72,59.17c-7.31-.3-14.6-1.15-21.79-2.52"/>
        <path class="cls-1" d="m64.38,50.84c-1.44,2.1-2.87,4.2-4.31,6.3"/>
        <path class="cls-1" d="m67.93,58.69c.88,1.53,1.76,3.06,2.64,4.58"/>
        <path class="cls-1" d="m72.63,58.31c.85-.98,1.7-1.97,2.55-2.95"/>
      </g>
    </g>
  </g>
</svg>